<svg xmlns="http://www.w3.org/2000/svg"  viewBox="0 0 40 40" width="40px" height="40px"><path fill="#c2e8ff" d="M26,38.5c-8.034,0-13.05-5.384-14.505-15.57l-0.051-0.354l-0.35-0.067 C7.38,21.798,4.5,18.964,4.5,17c0-3.075,5.196-5.792,12.38-6.486l3.125,1.932l3.116-1.932C30.304,11.209,35.5,13.925,35.5,17 c0,1.824-2.563,4.876-6.578,5.506l-0.232,0.037l-0.324,0.545c-1.833,3.067-5.649,9.452-1.657,12.318 c1.618,0.994,3.169,1.487,4.639,1.487c0.371,0,0.717-0.031,1.038-0.085C31.026,37.682,28.962,38.5,26,38.5z"/><path fill="#7496c4" d="M16.761,11.028l2.718,1.68l0.527,0.326l0.526-0.326l2.709-1.68C29.968,11.713,35,14.256,35,17 c0,1.65-2.398,4.423-6.155,5.012l-0.465,0.073l-0.24,0.404l-0.205,0.343c-1.76,2.946-5.883,9.846-1.519,12.98l0.03,0.021 l0.031,0.019c1.276,0.783,2.536,1.27,3.757,1.456C29.112,37.716,27.714,38,26,38c-9.792,0-13.023-8.234-14.01-15.141l-0.101-0.707 l-0.701-0.134C7.598,21.33,5,18.543,5,17C5,14.256,10.033,11.713,16.761,11.028 M23,10l-2.996,1.858L17,10 c-7.186,0.661-13,3.449-13,7c0,2.23,3.118,5.257,7,6c0.496,3.469,2.529,16,15,16c6.607,0,9-4,9-4s-1.283,1.394-3.653,1.394 c-1.185,0-2.642-0.348-4.347-1.394c-3.772-2.709,0.431-9.357,2-12c4.212-0.661,7-3.853,7-6C36,13.449,30.186,10.661,23,10L23,10z"/><path fill="#f78f8f" d="M23.274,38.294c-2.407-0.387-4.514-1.356-6.279-2.887c2.39-0.022,5.91-0.157,8.097-2.102 c0.241,0.786,0.711,1.434,1.404,1.931c0.435,0.268,0.862,0.497,1.284,0.69C26.727,36.888,25.299,37.889,23.274,38.294z"/><path fill="#c74343" d="M24.878,34.116c0.301,0.598,0.744,1.108,1.327,1.526l0.03,0.021l0.031,0.019 c0.204,0.125,0.41,0.244,0.617,0.355c-0.917,0.735-2.088,1.424-3.619,1.747c-1.797-0.301-3.419-0.941-4.845-1.912 C20.513,35.783,23.011,35.447,24.878,34.116 M25.41,32.236c-2.258,2.941-7.395,2.629-9.65,2.684 c1.815,1.897,4.253,3.376,7.524,3.881c2.602-0.496,4.262-1.908,5.396-3.043c-0.594-0.219-1.224-0.519-1.891-0.928 C25.867,34.168,25.47,33.263,25.41,32.236L25.41,32.236z"/><path fill="none" stroke="#7496c4" stroke-miterlimit="10" d="M11,22.506c8.969,0,10.438-7.004,16-7.004"/><path fill="#ffeea3" d="M20.471,17.556c-0.142-2.064-0.71-3.318-1.242-4.056h5.688c0.242,0.086,1.127,0.436,1.457,1.034 C23.94,14.729,22.175,16.157,20.471,17.556z"/><path fill="#f5c276" d="M24.836,14c0.121,0.046,0.276,0.115,0.433,0.202c-1.73,0.397-3.105,1.353-4.397,2.383 c-0.157-1.1-0.439-1.943-0.757-2.585H24.836 M25,13c0,0-2.594,0-7,0c0,0,2.004,0.949,2.004,5.563 c0.116-0.091,0.225-0.171,0.338-0.257c0.126-0.103,0.256-0.207,0.38-0.309c1.85-1.519,3.604-2.949,6.175-2.987 C26.963,15.002,27,15,27,15C27,13.596,25,13,25,13L25,13z"/><path fill="none" stroke="#7496c4" stroke-miterlimit="10" d="M19.75,19.406c2.234,1.505,4.485,3.1,8.396,3.1H29"/><path fill="#7496c4" d="M4.875,17H4c0.057-0.215,0.313-5,9-5c7.603,0,12,0,12,0v1c0,0-4.395,0-12,0	C5.031,13,4.886,16.958,4.875,17z"/><g><path fill="#c2e8ff" d="M17,10l3.004,1.858L23,10c0,0,0-3.752,0-4c-1.404-0.991-3-3-3-3s-1.659,2.047-3,3 C17,6.248,17,10,17,10z"/></g><g><path fill="#f78f8f" d="M23.5,5.741l-0.212-0.149c-1.33-0.939-2.881-2.883-2.896-2.902l-0.391-0.492l-0.392,0.491 c-0.016,0.02-1.6,1.994-2.896,2.902L16.5,5.739v0.429c-0.542-0.388-1-0.988-1-1.773c0-1.648,1.937-2.892,4.504-2.892 c2.563,0,4.496,1.243,4.496,2.892c0,0.914-0.46,1.474-1,1.816V5.741z"/><path fill="#c74343" d="M20.498,2.019C22.526,2.156,24,3.132,24,4.395c0,0.347-0.086,0.65-0.256,0.906l-0.167-0.118 c-1.268-0.895-2.779-2.786-2.794-2.805L20.498,2.019 M19.503,2.02l-0.285,0.357c-0.428,0.536-1.763,2.084-2.792,2.805l-0.134,0.094 C16.115,5.027,16,4.732,16,4.395C16,3.133,17.474,2.158,19.503,2.02 M20.004,1.003C17.007,1.003,15,2.521,15,4.395 C15,5.647,15.938,6.594,17,7c0-0.465,0-0.931,0-1c1.373-0.961,3-3,3-3s1.596,2.009,3,3c0,0.069,0,0.535,0,1 c1.25-0.438,2-1.353,2-2.605C25,2.521,23.002,1.003,20.004,1.003L20.004,1.003z"/></g><g><path fill="#839cb2" d="M20.005,12.5c-0.369,0-3.505-0.099-3.505-3.5c0-0.821,0.609-2.142,0.895-2.679L17.5,6.232V9 c0,1.105,1.292,1.5,2.5,1.5s2.5-0.395,2.5-1.5V6.232l0.105,0.089C22.891,6.858,23.5,8.179,23.5,9c0,1.445-0.558,2.468-1.658,3.038 c-0.88,0.457-1.796,0.462-1.835,0.462H20.005z"/><path fill="#66798f" d="M23,9c0,2.855-2.493,3-3.007,3C19.493,12,17,11.855,17,9c0,1.215,1.178,2,3,2S23,10.215,23,9 M22,5.157c0,0,0,3.776,0,3.843c0,1-1.917,1-2,1s-2,0-2-1c0-0.109,0-3.843,0-3.843L17,6c0,0-1,1.813-1,3c0,3.953,3.811,4,3.993,4 C19.998,13,20,13,20,13s0.002,0,0.007,0C20.188,13,24,12.953,24,9c0-1.187-1-3-1-3L22,5.157L22,5.157z"/></g></svg>