<svg xmlns="http://www.w3.org/2000/svg"  viewBox="0 0 32 32" width="32px" height="32px" baseProfile="basic"><circle cx="13" cy="4" r="1"/><circle cx="19" cy="4" r="1"/><circle cx="13" cy="1" r="1"/><circle cx="10" cy="4" r="1"/><circle cx="16" cy="1" r="1"/><circle cx="19" cy="1" r="1"/><circle cx="22" cy="4" r="1"/><circle cx="13" cy="7" r="1"/><circle cx="19" cy="7" r="1"/><circle cx="7" cy="10" r="1"/><circle cx="10" cy="10" r="1"/><circle cx="13" cy="10" r="1"/><circle cx="19" cy="10" r="1"/><circle cx="22" cy="10" r="1"/><circle cx="25" cy="10" r="1"/><circle cx="4" cy="13" r="1"/><circle cx="7" cy="13" r="1"/><circle cx="10" cy="13" r="1"/><circle cx="13" cy="13" r="1"/><circle cx="16" cy="13" r="1"/><circle cx="16" cy="10" r="1"/><circle cx="19" cy="13" r="1"/><circle cx="22" cy="13" r="1"/><circle cx="25" cy="13" r="1"/><circle cx="28" cy="13" r="1"/><circle cx="4" cy="16" r="1"/><circle cx="7" cy="16" r="1"/><circle cx="10" cy="16" r="1"/><circle cx="13" cy="16" r="1"/><circle cx="16" cy="16" r="1"/><circle cx="19" cy="16" r="1"/><circle cx="22" cy="16" r="1"/><circle cx="25" cy="16" r="1"/><circle cx="28" cy="16" r="1"/><circle cx="10" cy="19" r="1"/><circle cx="13" cy="19" r="1"/><circle cx="16" cy="19" r="1"/><circle cx="19" cy="19" r="1"/><circle cx="22" cy="19" r="1"/><circle cx="16" cy="22" r="1"/><circle cx="13" cy="22" r="1"/><circle cx="10" cy="22" r="1"/><circle cx="19" cy="22" r="1"/><circle cx="22" cy="22" r="1"/><circle cx="19" cy="25" r="1"/><circle cx="16" cy="25" r="1"/><circle cx="13" cy="25" r="1"/><circle cx="22" cy="25" r="1"/><circle cx="22" cy="28" r="1"/><circle cx="19" cy="28" r="1"/><circle cx="16" cy="28" r="1"/><circle cx="25" cy="25" r="1"/><circle cx="25" cy="28" r="1"/><circle cx="28" cy="25" r="1"/></svg>