<svg xmlns="http://www.w3.org/2000/svg"  viewBox="0 0 64 64" width="48px" height="48px"><path d="M 32 4 C 29.487 3.999 24.941359 3.9835625 22.443359 6.4765625 C 21.153359 7.7635625 20.5 9.538 20.5 11.75 C 20.5 14.666152 22.209477 16.366879 23.027344 17.019531 C 23.12263 18.414325 23.594323 19.851794 24.357422 21.162109 C 17.546146 22.995255 13.128549 26.284343 10.925781 31.179688 C 10.328781 32.507688 10 33.5 10 35 C 10 40.5 15.000766 44 22.259766 44 C 24.091766 44 27.783984 43.567875 30.708984 42.921875 C 27.868984 40.295875 25.961219 36.753 25.699219 36.25 L 23 36.25 C 22.172 36.25 21.5 35.579 21.5 34.75 C 21.5 33.921 22.172 33.25 23 33.25 L 40 33.25 C 40.828 33.25 41.5 33.921 41.5 34.75 C 41.5 35.579 40.828 36.25 40 36.25 L 29.169922 36.25 C 30.171922 37.856 31.955063 40.362938 34.164062 41.835938 C 36.379062 43.312938 39.002234 44 41.740234 44 C 48.999234 44 54 40.5 54 35 C 54 33.5 53.671219 32.507687 53.074219 31.179688 C 50.871451 26.285255 46.453241 22.99796 39.642578 21.164062 C 40.398304 19.866876 40.866712 18.444384 40.96875 17.0625 C 41.841826 16.42616 43.5 14.817357 43.5 11.75 C 43.5 9.539 42.846641 7.7635625 41.556641 6.4765625 C 39.058641 3.9835625 34.519 4.001 32 4 z M 32 12.003906 C 32.963004 13.49524 34.668038 15.656274 36.970703 16.771484 C 36.815709 18.974016 34.787297 22 32 22 C 29.212703 22 27.184291 18.974016 27.029297 16.771484 C 29.331962 15.656041 31.036996 13.494525 32 12.003906 z M 34.027344 45.128906 C 30.423344 46.349906 24.399766 47 22.259766 47 C 21.030766 47 19.859469 46.886984 18.730469 46.708984 C 20.612469 52.982984 26.193922 56.838969 35.669922 58.417969 C 38.303922 58.856969 40.920234 59.001953 43.240234 59.001953 C 47.737234 59.001953 51.117125 58.452969 51.328125 58.417969 C 52.177125 58.275969 52.830844 57.602953 52.964844 56.751953 C 53.099844 55.901953 52.665391 55.054203 51.900391 54.658203 C 51.706391 54.557203 47.970875 52.542797 46.546875 46.466797 C 45.045875 46.804797 43.443234 47 41.740234 47 C 39.256234 47 36.667344 46.371906 34.027344 45.128906 z"/></svg>